<svg width="64" height="64" viewBox="0 0 64 64" xmlns="http://www.w3.org/2000/svg">
  <defs>
    <linearGradient id="g" x1="0" y1="0" x2="1" y2="1">
      <stop offset="0%" stop-color="#2563EB"/>
      <stop offset="100%" stop-color="#7C3AED"/>
    </linearGradient>
  </defs>
  <rect width="64" height="64" rx="16" fill="url(#g)"/>
  <path d="M20 33.5C20 25.5 26 20 34 20C39 20 43 22 45.5 25.5L40.5 29.5C39 27.5 36.8 26 34 26C29.5 26 26.5 29.3 26.5 33.5C26.5 37.9 29.7 41 34 41C37.3 41 39.6 39.3 40.5 37H34V32H46V34.5C46 42 40.5 47 33.7 47C25.9 47 20 41.5 20 33.5Z" fill="white"/>
</svg>
